#!OML:ASF F:\VICON\USERDATA\INSTALL\rory3\rory3.ASF
:FULLY-SPECIFIED
:DEGREES
343
root 1.98144 17.2568 32.1423 -158.034 -14.2285 -171.88
lowerback -1.28033 -0.973269 -0.879888
upperback -6.07408 -1.59179 2.86282
thorax -5.47048 -0.840785 3.54031
lowerneck -17.4547 2.44356 0.192618
upperneck 33.665 0.793642 1.25522
head 14.5125 -0.245492 0.414399
rclavicle 1.59028e-015 2.78299e-014
rhumerus -156.247 -36.701 102.896
rradius 11.2331
rwrist 96.0977
rhand -34.229 25.8419
rfingers 7.12502
rthumb -7.40062 -4.00864
lclavicle 1.59028e-015 2.78299e-014
lhumerus -18.5865 36.5305 52.8418
lradius 11.2679
lwrist -66.9114
lhand -26.1924 24.0487
lfingers 7.12502
lthumb 0.359939 54.0281
rfemur -46.9901 7.0478 23.4297
rtibia 30.0929
rfoot -13.6509 -19.6319
rtoes 9.9182
lfemur -27.2784 7.37076 -21.6879
ltibia 29.8919
lfoot -68.0159 27.361
ltoes 25.2223
344
root 1.96575 17.2743 32.0598 -158.057 -14.4954 -172.143
lowerback -0.97898 -1.24372 -0.815491
upperback -5.98995 -1.93651 2.88751
thorax -5.53131 -1.00803 3.548
lowerneck -18.1404 2.52449 0.0109925
upperneck 33.6858 1.0623 1.2071
head 14.6726 -0.138474 0.482878
rclavicle 8.94531e-015 2.62396e-014
rhumerus -155.912 -37.1438 101.216
rradius 10.9527
rwrist 95.6757
rhand -34.2183 25.0902
rfingers 7.12502
rthumb -7.39027 -4.76073
lclavicle 8.94531e-015 2.62396e-014
lhumerus -19.4193 39.6221 53.035
lradius 10.8073
lwrist -70.7161
lhand -26.3775 24.0019
lfingers 7.12502
lthumb 0.181104 53.9816
rfemur -47.5799 7.56222 22.3854
rtibia 28.2632
rfoot -11.9303 -20.6228
rtoes 8.67511
lfemur -26.4288 7.2848 -21.8567
ltibia 29.0391
lfoot -68.6032 26.7242
ltoes 26.178
345
root 1.94559 17.295 31.9867 -158.064 -14.9887 -172.235
lowerback -0.540801 -1.45807 -0.36155
upperback -6.13299 -2.21453 2.81222
thorax -5.9329 -1.16625 3.24751
lowerneck -18.4275 2.57633 0.0687217
upperneck 33.7432 1.12361 1.23863
head 14.7644 -0.095432 0.500141
rclavicle 1.49089e-015 -3.26007e-014
rhumerus -154.25 -39.0163 97.8905
rradius 10.6167
rwrist 93.1661
rhand -33.9039 24.1455
rfingers 7.12502
rthumb -7.08679 -5.71582
lclavicle 1.49089e-015 -3.26007e-014
lhumerus -20.3836 41.9866 53.1322
lradius 10.4452
lwrist -73.854
lhand -26.3509 23.5411
lfingers 7.12502
lthumb 0.206867 53.5207
rfemur -48.1966 7.68381 21.6488
rtibia 26.4042
rfoot -10.0715 -21.7139
rtoes 6.8302
lfemur -25.7143 7.16979 -21.8229
ltibia 28.2364
lfoot -68.5786 26.5098
ltoes 26.6131
346
root 1.95167 17.3052 31.8972 -157.945 -15.168 -172.436
lowerback -0.404368 -1.57472 -0.497598
upperback -6.32061 -2.38732 2.734
thorax -6.19937 -1.24752 3.26337
lowerneck -18.2998 2.52689 0.0856899
upperneck 33.6691 1.02598 1.27999
head 14.7022 -0.130833 0.495125
rclavicle 3.47873e-015 1.51076e-014
rhumerus -151.26 -42.5485 92.7741
rradius 10.1729
rwrist 88.6205
rhand -33.4844 23.0917
rfingers 7.12502
rthumb -6.68184 -6.78283
lclavicle 3.47873e-015 1.51076e-014
lhumerus -21.1369 42.5191 53.7959
lradius 10.3174
lwrist -75.2358
lhand -26.0268 23.412
lfingers 7.12502
lthumb 0.519823 53.3911
rfemur -48.9579 8.68693 20.3423
rtibia 24.6695
rfoot -9.09284 -23.4222
rtoes 7.5428
lfemur -25.0637 7.40756 -21.9079
ltibia 27.3509
lfoot -67.9074 27.1168
ltoes 26.067
347
root 1.95539 17.3145 31.7975 -157.911 -15.2739 -172.558
lowerback -0.415751 -1.75872 -0.707151
upperback -6.29624 -2.63546 2.85068
thorax -6.13931 -1.35722 3.51244
lowerneck -18.6527 2.557 -0.129022
upperneck 33.6886 1.17255 1.29509
head 14.7864 -0.0848453 0.569732
rclavicle -1.98785e-014 -8.74653e-015
rhumerus -144.749 -51.4857 82.8359
rradius 9.71071
rwrist 78.3197
rhand -32.6665 20.5977
rfingers 7.12502
rthumb -5.89221 -9.30038
lclavicle -1.98785e-014 -8.74653e-015
lhumerus -21.8904 43.5683 54.5837
lradius 10.2095
lwrist -76.4228
lhand -25.6475 23.6453
lfingers 7.12502
lthumb 0.886159 53.6232
rfemur -49.5414 9.74161 19.046
rtibia 23.0283
rfoot -8.97854 -25.0508
rtoes 11.0827
lfemur -24.3019 7.9302 -21.9521
ltibia 26.4537
lfoot -66.7644 28.2983
ltoes 24.742
348
root 1.93757 17.3322 31.7013 -157.799 -15.4381 -173.072
lowerback -0.450643 -2.00086 -1.02723
upperback -6.17613 -2.95597 2.85874
thorax -5.95613 -1.49697 3.70595
lowerneck -19.1631 2.65207 -0.327458
upperneck 33.5892 1.44825 1.34069
head 14.8494 0.0381601 0.682382
rclavicle -2.49475e-014 1.74931e-014
rhumerus -134.26 -59.4131 68.9598
rradius 8.95566
rwrist 67.992
rhand -32.4369 18.2668
rfingers 7.12502
rthumb -5.67061 -11.6373
lclavicle -2.49475e-014 1.74931e-014
lhumerus -21.1193 41.7984 57.4138
lradius 9.83591
lwrist -74.3785
lhand -25.3192 24.3888
lfingers 7.12502
lthumb 1.20329 54.3651
rfemur -50.1886 10.3305 17.3438
rtibia 21.6545
rfoot -9.08789 -26.4678
rtoes 14.559
lfemur -23.3843 8.35136 -22.4596
ltibia 25.3887
lfoot -65.4334 29.4837
ltoes 23.061
